{
    "asset" : {
        "generator" : "Khronos glTF Blender I/O v3.3.32",
        "version" : "2.0"
    },
    "scene" : 0,
    "scenes" : [
        {
            "name" : "Scene",
            "nodes" : [
                0
            ]
        }
    ],
    "nodes" : [
        {
            "mesh" : 0,
            "name" : "Text.025",
            "rotation" : [
                0.7071068286895752,
                0,
                0,
                0.7071068286895752
            ],
            "scale" : [
                4.849707126617432,
                1,
                4.849707126617432
            ],
            "translation" : [
                1,
                1.0000044107437134,
                -1
            ]
        }
    ],
    "materials" : [
        {
            "doubleSided" : true,
            "name" : "Material.001",
            "pbrMetallicRoughness" : {
                "baseColorFactor" : [
                    0.5271152257919312,
                    0.05126931145787239,
                    0.020288581028580666,
                    1
                ],
                "metallicFactor" : 0,
                "roughnessFactor" : 0.5
            }
        }
    ],
    "meshes" : [
        {
            "name" : "Text.025",
            "primitives" : [
                {
                    "attributes" : {
                        "POSITION" : 0,
                        "NORMAL" : 1,
                        "TEXCOORD_0" : 2
                    },
                    "indices" : 3,
                    "material" : 0
                }
            ]
        }
    ],
    "accessors" : [
        {
            "bufferView" : 0,
            "componentType" : 5126,
            "count" : 31881,
            "max" : [
                0.4684477150440216,
                0.3199999928474426,
                0.030477726832032204
            ],
            "min" : [
                -0.0022901836782693863,
                -0.3199999928474426,
                -0.5045199394226074
            ],
            "type" : "VEC3"
        },
        {
            "bufferView" : 1,
            "componentType" : 5126,
            "count" : 31881,
            "type" : "VEC3"
        },
        {
            "bufferView" : 2,
            "componentType" : 5126,
            "count" : 31881,
            "type" : "VEC2"
        },
        {
            "bufferView" : 3,
            "componentType" : 5123,
            "count" : 177414,
            "type" : "SCALAR"
        }
    ],
    "bufferViews" : [
        {
            "buffer" : 0,
            "byteLength" : 382572,
            "byteOffset" : 0,
            "target" : 34962
        },
        {
            "buffer" : 0,
            "byteLength" : 382572,
            "byteOffset" : 382572,
            "target" : 34962
        },
        {
            "buffer" : 0,
            "byteLength" : 255048,
            "byteOffset" : 765144,
            "target" : 34962
        },
        {
            "buffer" : 0,
            "byteLength" : 354828,
            "byteOffset" : 1020192,
            "target" : 34963
        }
    ],
    "buffers" : [
        {
            "byteLength" : 1375020,
            "uri" : "data:application/octet-stream;base64,"
        }
    ]
}
