{
    "asset" : {
        "generator" : "Khronos glTF Blender I/O v3.3.32",
        "version" : "2.0"
    },
    "scene" : 0,
    "scenes" : [
        {
            "name" : "Scene",
            "nodes" : [
                0
            ]
        }
    ],
    "nodes" : [
        {
            "mesh" : 0,
            "name" : "Text.021",
            "rotation" : [
                0.7071068286895752,
                0,
                0,
                0.7071068286895752
            ],
            "scale" : [
                4.849707126617432,
                1,
                4.849707126617432
            ],
            "translation" : [
                -0.9362007975578308,
                5.001217842102051,
                -0.08794320374727249
            ]
        }
    ],
    "meshes" : [
        {
            "name" : "Text.021",
            "primitives" : [
                {
                    "attributes" : {
                        "POSITION" : 0,
                        "NORMAL" : 1,
                        "TEXCOORD_0" : 2
                    },
                    "indices" : 3
                }
            ]
        }
    ],
    "accessors" : [
        {
            "bufferView" : 0,
            "componentType" : 5126,
            "count" : 16216,
            "max" : [
                0.427171915769577,
                0.3199999928474426,
                1.0217379331588745
            ],
            "min" : [
                0.000682193785905838,
                -0.3199999928474426,
                0.5310431718826294
            ],
            "type" : "VEC3"
        },
        {
            "bufferView" : 1,
            "componentType" : 5126,
            "count" : 16216,
            "type" : "VEC3"
        },
        {
            "bufferView" : 2,
            "componentType" : 5126,
            "count" : 16216,
            "type" : "VEC2"
        },
        {
            "bufferView" : 3,
            "componentType" : 5123,
            "count" : 90528,
            "type" : "SCALAR"
        }
    ],
    "bufferViews" : [
        {
            "buffer" : 0,
            "byteLength" : 194592,
            "byteOffset" : 0,
            "target" : 34962
        },
        {
            "buffer" : 0,
            "byteLength" : 194592,
            "byteOffset" : 194592,
            "target" : 34962
        },
        {
            "buffer" : 0,
            "byteLength" : 129728,
            "byteOffset" : 389184,
            "target" : 34962
        },
        {
            "buffer" : 0,
            "byteLength" : 181056,
            "byteOffset" : 518912,
            "target" : 34963
        }
    ],
    "buffers" : [
        {
            "byteLength" : 699968,
            "uri" : "data:application/octet-stream;base64,"
        }
    ]
}
