{
    "asset" : {
        "generator" : "Khronos glTF Blender I/O v3.3.32",
        "version" : "2.0"
    },
    "scene" : 0,
    "scenes" : [
        {
            "name" : "Scene",
            "nodes" : [
                0
            ]
        }
    ],
    "nodes" : [
        {
            "mesh" : 0,
            "name" : "Text.020",
            "rotation" : [
                0.7071068286895752,
                0,
                0,
                0.7071068286895752
            ],
            "scale" : [
                4.849707126617432,
                1,
                4.849707126617432
            ],
            "translation" : [
                -4.724717617034912,
                5.07304573059082,
                -0.07397274672985077
            ]
        }
    ],
    "meshes" : [
        {
            "name" : "Text.020",
            "primitives" : [
                {
                    "attributes" : {
                        "POSITION" : 0,
                        "NORMAL" : 1,
                        "TEXCOORD_0" : 2
                    },
                    "indices" : 3
                }
            ]
        }
    ],
    "accessors" : [
        {
            "bufferView" : 0,
            "componentType" : 5126,
            "count" : 32519,
            "max" : [
                1.2101572751998901,
                0.3199999928474426,
                1.025578498840332
            ],
            "min" : [
                0.7113569974899292,
                -0.3199999928474426,
                0.540025532245636
            ],
            "type" : "VEC3"
        },
        {
            "bufferView" : 1,
            "componentType" : 5126,
            "count" : 32519,
            "type" : "VEC3"
        },
        {
            "bufferView" : 2,
            "componentType" : 5126,
            "count" : 32519,
            "type" : "VEC2"
        },
        {
            "bufferView" : 3,
            "componentType" : 5123,
            "count" : 181368,
            "type" : "SCALAR"
        }
    ],
    "bufferViews" : [
        {
            "buffer" : 0,
            "byteLength" : 390228,
            "byteOffset" : 0,
            "target" : 34962
        },
        {
            "buffer" : 0,
            "byteLength" : 390228,
            "byteOffset" : 390228,
            "target" : 34962
        },
        {
            "buffer" : 0,
            "byteLength" : 260152,
            "byteOffset" : 780456,
            "target" : 34962
        },
        {
            "buffer" : 0,
            "byteLength" : 362736,
            "byteOffset" : 1040608,
            "target" : 34963
        }
    ],
    "buffers" : [
        {
            "byteLength" : 1403344,
            "uri" : "data:application/octet-stream;base64,"
        }
    ]
}
