{
    "asset" : {
        "generator" : "Khronos glTF Blender I/O v3.3.32",
        "version" : "2.0"
    },
    "scene" : 0,
    "scenes" : [
        {
            "name" : "Scene",
            "nodes" : [
                0
            ]
        }
    ],
    "nodes" : [
        {
            "mesh" : 0,
            "name" : "Text.024",
            "rotation" : [
                0.7071068286895752,
                0,
                0,
                0.7071068286895752
            ],
            "scale" : [
                4.849707126617432,
                1,
                4.849707126617432
            ],
            "translation" : [
                -4.75,
                0,
                0
            ]
        }
    ],
    "meshes" : [
        {
            "name" : "Text.002",
            "primitives" : [
                {
                    "attributes" : {
                        "POSITION" : 0,
                        "NORMAL" : 1,
                        "TEXCOORD_0" : 2
                    },
                    "indices" : 3
                }
            ]
        }
    ],
    "accessors" : [
        {
            "bufferView" : 0,
            "componentType" : 5126,
            "count" : 30008,
            "max" : [
                1.251118540763855,
                0.3199999928474426,
                0.024859655648469925
            ],
            "min" : [
                0.7405683994293213,
                -0.3199999928474426,
                -0.49189481139183044
            ],
            "type" : "VEC3"
        },
        {
            "bufferView" : 1,
            "componentType" : 5126,
            "count" : 30008,
            "type" : "VEC3"
        },
        {
            "bufferView" : 2,
            "componentType" : 5126,
            "count" : 30008,
            "type" : "VEC2"
        },
        {
            "bufferView" : 3,
            "componentType" : 5123,
            "count" : 167664,
            "type" : "SCALAR"
        }
    ],
    "bufferViews" : [
        {
            "buffer" : 0,
            "byteLength" : 360096,
            "byteOffset" : 0,
            "target" : 34962
        },
        {
            "buffer" : 0,
            "byteLength" : 360096,
            "byteOffset" : 360096,
            "target" : 34962
        },
        {
            "buffer" : 0,
            "byteLength" : 240064,
            "byteOffset" : 720192,
            "target" : 34962
        },
        {
            "buffer" : 0,
            "byteLength" : 335328,
            "byteOffset" : 960256,
            "target" : 34963
        }
    ],
    "buffers" : [
        {
            "byteLength" : 1295584,
            "uri" : "data:application/octet-stream;base64,"
        }
    ]
}
