{
    "asset" : {
        "generator" : "Khronos glTF Blender I/O v3.3.32",
        "version" : "2.0"
    },
    "scene" : 0,
    "scenes" : [
        {
            "name" : "Scene",
            "nodes" : [
                0
            ]
        }
    ],
    "nodes" : [
        {
            "mesh" : 0,
            "name" : "Text.023",
            "rotation" : [
                0.7071068286895752,
                0,
                0,
                0.7071068286895752
            ],
            "scale" : [
                4.849707126617432,
                1,
                4.849707126617432
            ],
            "translation" : [
                -8.562894821166992,
                0,
                0
            ]
        }
    ],
    "meshes" : [
        {
            "name" : "Text.003",
            "primitives" : [
                {
                    "attributes" : {
                        "POSITION" : 0,
                        "NORMAL" : 1,
                        "TEXCOORD_0" : 2
                    },
                    "indices" : 3
                }
            ]
        }
    ],
    "accessors" : [
        {
            "bufferView" : 0,
            "componentType" : 5126,
            "count" : 19252,
            "max" : [
                2.038347005844116,
                0.3199999928474426,
                0.020693963393568993
            ],
            "min" : [
                1.524755597114563,
                -0.3199999928474426,
                -0.48148712515830994
            ],
            "type" : "VEC3"
        },
        {
            "bufferView" : 1,
            "componentType" : 5126,
            "count" : 19252,
            "type" : "VEC3"
        },
        {
            "bufferView" : 2,
            "componentType" : 5126,
            "count" : 19252,
            "type" : "VEC2"
        },
        {
            "bufferView" : 3,
            "componentType" : 5123,
            "count" : 107700,
            "type" : "SCALAR"
        }
    ],
    "bufferViews" : [
        {
            "buffer" : 0,
            "byteLength" : 231024,
            "byteOffset" : 0,
            "target" : 34962
        },
        {
            "buffer" : 0,
            "byteLength" : 231024,
            "byteOffset" : 231024,
            "target" : 34962
        },
        {
            "buffer" : 0,
            "byteLength" : 154016,
            "byteOffset" : 462048,
            "target" : 34962
        },
        {
            "buffer" : 0,
            "byteLength" : 215400,
            "byteOffset" : 616064,
            "target" : 34963
        }
    ],
    "buffers" : [
        {
            "byteLength" : 831464,
            "uri" : "data:application/octet-stream;base64,"
        }
    ]
}
