{
    "asset" : {
        "generator" : "Khronos glTF Blender I/O v3.3.32",
        "version" : "2.0"
    },
    "scene" : 0,
    "scenes" : [
        {
            "name" : "Scene",
            "nodes" : [
                0
            ]
        }
    ],
    "nodes" : [
        {
            "mesh" : 0,
            "name" : "Text.022",
            "rotation" : [
                0.7071068286895752,
                0,
                0,
                0.7071068286895752
            ],
            "scale" : [
                4.849707126617432,
                1,
                4.849707126617432
            ],
            "translation" : [
                -12.277718544006348,
                0,
                0
            ]
        }
    ],
    "meshes" : [
        {
            "name" : "Text.022",
            "primitives" : [
                {
                    "attributes" : {
                        "POSITION" : 0,
                        "NORMAL" : 1,
                        "TEXCOORD_0" : 2
                    },
                    "indices" : 3
                }
            ]
        }
    ],
    "accessors" : [
        {
            "bufferView" : 0,
            "componentType" : 5126,
            "count" : 14372,
            "max" : [
                2.7805850505828857,
                0.3199999928474426,
                0.0158391110599041
            ],
            "min" : [
                2.3235113620758057,
                -0.3199999928474426,
                -0.4641379117965698
            ],
            "type" : "VEC3"
        },
        {
            "bufferView" : 1,
            "componentType" : 5126,
            "count" : 14372,
            "type" : "VEC3"
        },
        {
            "bufferView" : 2,
            "componentType" : 5126,
            "count" : 14372,
            "type" : "VEC2"
        },
        {
            "bufferView" : 3,
            "componentType" : 5123,
            "count" : 79956,
            "type" : "SCALAR"
        }
    ],
    "bufferViews" : [
        {
            "buffer" : 0,
            "byteLength" : 172464,
            "byteOffset" : 0,
            "target" : 34962
        },
        {
            "buffer" : 0,
            "byteLength" : 172464,
            "byteOffset" : 172464,
            "target" : 34962
        },
        {
            "buffer" : 0,
            "byteLength" : 114976,
            "byteOffset" : 344928,
            "target" : 34962
        },
        {
            "buffer" : 0,
            "byteLength" : 159912,
            "byteOffset" : 459904,
            "target" : 34963
        }
    ],
    "buffers" : [
        {
            "byteLength" : 619816,
            "uri" : "data:application/octet-stream;base64,"
        }
    ]
}
